<svg id="svg" xmlns="http://www.w3.org/2000/svg" xmlns:xlink="http://www.w3.org/1999/xlink" width="400" height="260.8" viewBox="0, 0, 400,260.8"><g id="svgg"><path id="path0" d="M89.100 89.200 L 47.900 130.400 89.100 171.600 C 111.760 194.260,130.387 212.800,130.494 212.800 C 130.601 212.800,143.882 199.610,160.007 183.490 L 189.326 154.180 190.213 154.468 C 197.144 156.722,207.343 156.231,212.700 153.386 C 217.971 150.586,220.434 146.639,220.422 141.012 C 220.411 135.602,218.175 132.171,212.923 129.505 C 211.576 128.821,210.680 127.981,201.410 118.710 L 191.359 108.657 192.320 108.120 C 197.934 104.982,209.760 106.022,215.356 110.146 C 216.262 110.814,216.326 110.757,217.312 108.394 C 218.398 105.788,218.406 105.943,217.150 105.147 C 209.042 100.013,192.721 99.719,187.706 104.618 C 187.583 104.738,177.177 94.474,159.101 76.404 C 143.474 60.782,130.601 48.000,130.494 48.000 C 130.387 48.000,111.760 66.540,89.100 89.200 M156.696 83.796 L 182.891 109.991 182.628 110.646 C 180.588 115.726,181.592 121.313,185.170 124.795 C 188.099 127.645,191.626 129.142,200.654 131.366 L 202.007 131.700 194.222 139.481 L 186.437 147.261 185.368 146.491 C 184.781 146.068,183.956 145.419,183.536 145.048 C 182.585 144.211,182.566 144.225,181.300 146.803 L 180.300 148.839 181.480 149.939 L 182.661 151.039 156.530 177.169 L 130.400 203.300 106.499 179.400 L 82.598 155.500 85.449 155.400 L 88.300 155.300 88.352 148.200 L 88.404 141.100 93.740 135.761 C 96.674 132.825,99.145 130.466,99.232 130.520 C 99.318 130.573,102.834 134.591,107.045 139.448 C 111.255 144.305,115.105 148.739,115.600 149.302 C 116.095 149.866,117.490 151.468,118.700 152.862 L 120.900 155.398 124.350 155.399 C 128.002 155.400,128.033 155.391,127.343 154.579 C 127.099 154.292,125.956 152.942,124.802 151.579 C 123.648 150.215,122.513 148.875,122.278 148.600 C 118.847 144.574,113.880 138.691,105.350 128.555 C 104.277 127.281,103.403 126.117,103.406 125.969 C 103.412 125.665,104.203 124.780,107.675 121.195 C 109.009 119.818,110.910 117.835,111.900 116.790 C 113.433 115.171,118.733 109.640,124.649 103.486 C 125.502 102.599,126.200 101.811,126.200 101.736 C 126.200 101.661,124.685 101.600,122.833 101.600 L 119.465 101.600 118.311 102.850 C 117.677 103.538,115.615 105.676,113.729 107.602 C 111.843 109.528,109.040 112.409,107.500 114.005 C 105.960 115.601,101.723 119.965,98.084 123.703 C 94.445 127.441,90.800 131.208,89.984 132.073 L 88.500 133.646 88.400 117.673 L 88.300 101.700 87.313 101.638 L 86.326 101.575 108.312 79.588 C 120.405 67.494,130.345 57.600,130.400 57.600 C 130.455 57.600,142.288 69.388,156.696 83.796 M165.929 98.869 C 163.619 100.267,163.199 103.199,165.044 105.044 C 168.464 108.464,174.093 104.176,171.416 100.191 C 170.559 98.914,169.581 98.402,168.000 98.402 C 166.992 98.402,166.527 98.507,165.929 98.869 M82.200 130.450 L 82.200 155.100 69.850 142.750 L 57.501 130.400 69.800 118.100 C 76.564 111.335,82.122 105.800,82.149 105.800 C 82.177 105.800,82.200 116.892,82.200 130.450 M232.539 106.128 C 232.462 106.204,232.400 108.185,232.400 110.529 L 232.400 114.791 228.850 114.845 L 225.300 114.900 225.244 117.350 L 225.188 119.800 228.794 119.800 L 232.400 119.800 232.400 133.004 C 232.400 149.122,232.501 149.746,235.611 152.779 C 239.320 156.397,247.009 156.864,251.850 153.766 C 253.010 153.024,253.013 152.933,251.962 150.750 C 251.086 148.932,250.935 148.800,250.288 149.300 C 248.187 150.925,244.224 151.324,241.600 150.175 C 240.699 149.781,239.001 148.301,238.999 147.908 C 238.998 147.794,238.841 147.430,238.649 147.100 C 238.328 146.548,238.295 145.422,238.243 133.153 L 238.187 119.806 244.243 119.753 L 250.300 119.700 250.357 117.416 C 250.399 115.723,250.347 115.090,250.157 114.969 C 250.016 114.879,247.269 114.805,244.054 114.803 L 238.208 114.800 238.154 110.450 L 238.100 106.100 235.389 106.045 C 233.898 106.014,232.615 106.052,232.539 106.128 M152.000 114.740 C 147.495 115.280,142.517 118.282,141.039 121.350 C 140.499 122.471,140.411 122.098,140.355 118.450 L 140.300 114.900 137.700 114.900 L 135.100 114.900 135.049 135.150 L 134.998 155.400 137.799 155.400 L 140.600 155.400 140.600 144.807 C 140.600 133.588,140.739 131.335,141.602 128.542 C 142.847 124.513,146.202 121.391,150.136 120.601 C 150.776 120.473,151.677 120.285,152.139 120.184 C 152.600 120.083,153.570 120.000,154.294 120.000 L 155.612 120.000 155.556 117.350 L 155.500 114.700 154.100 114.678 C 153.330 114.666,152.385 114.694,152.000 114.740 M274.800 114.714 C 274.525 114.762,273.649 114.897,272.853 115.015 C 254.238 117.760,251.342 146.269,268.900 153.936 C 272.040 155.307,273.627 155.623,277.939 155.739 C 284.153 155.907,288.742 154.311,292.648 150.627 C 294.266 149.101,294.272 149.241,292.500 147.222 C 290.828 145.317,291.020 145.358,289.647 146.614 C 282.665 152.994,270.076 151.749,265.244 144.200 C 263.958 142.190,263.366 140.486,262.936 137.551 L 262.856 137.002 279.678 136.951 L 296.500 136.900 296.563 135.400 C 296.971 125.597,290.482 116.844,281.500 115.084 C 280.055 114.800,275.683 114.559,274.800 114.714 M326.200 114.720 C 325.030 114.816,323.354 115.158,322.100 115.555 C 321.224 115.832,320.391 116.230,317.900 117.558 C 317.570 117.734,316.372 118.806,315.238 119.939 C 314.104 121.073,313.139 122.000,313.093 122.000 C 313.047 122.000,312.985 120.403,312.955 118.450 L 312.900 114.900 310.316 114.844 C 308.382 114.802,307.690 114.852,307.569 115.044 C 307.224 115.588,307.367 169.938,307.714 170.286 C 308.086 170.658,312.158 170.743,312.813 170.393 C 313.188 170.192,313.200 169.854,313.206 159.243 L 313.213 148.300 313.726 148.900 C 316.948 152.665,320.066 154.624,324.214 155.490 C 325.883 155.838,330.615 155.914,331.777 155.612 C 332.175 155.508,333.175 155.273,334.000 155.089 C 340.374 153.669,345.668 148.595,347.657 142.000 C 349.488 135.927,348.511 127.707,345.478 123.663 C 345.215 123.313,345.000 122.933,345.000 122.818 C 345.000 122.346,340.848 118.451,339.469 117.629 C 335.610 115.331,331.014 114.323,326.200 114.720 M165.333 114.933 C 165.260 115.007,165.200 124.142,165.200 135.233 L 165.200 155.400 168.000 155.400 L 170.800 155.400 170.800 135.221 C 170.800 117.006,170.769 115.031,170.484 114.921 C 170.053 114.756,165.500 114.767,165.333 114.933 M197.526 124.741 C 197.493 124.773,196.844 124.613,196.083 124.385 C 190.722 122.776,188.261 120.649,187.611 117.062 C 187.092 114.198,187.098 114.201,192.619 119.719 C 195.350 122.449,197.558 124.708,197.526 124.741 M279.554 119.801 C 285.191 120.533,289.826 125.183,290.854 131.137 L 291.124 132.700 276.998 132.700 L 262.871 132.700 263.137 131.039 C 264.369 123.346,271.143 118.709,279.554 119.801 M332.228 120.201 C 339.152 122.229,343.000 127.900,342.744 135.700 C 342.467 144.127,338.088 149.281,330.154 150.515 C 318.096 152.391,309.542 140.140,314.572 128.200 C 317.338 121.636,325.108 118.116,332.228 120.201 M210.647 134.831 C 217.143 138.725,215.424 147.488,207.700 149.851 C 204.192 150.924,196.919 151.040,193.810 150.072 C 193.537 149.987,209.089 134.200,209.446 134.200 C 209.527 134.200,210.068 134.484,210.647 134.831 " stroke="none" fill="#ffffff" fill-rule="evenodd"></path></g></svg>